<svg xmlns="http://www.w3.org/2000/svg" width="760" height="740" viewBox="0 0 760 740">
<rect width="760" height="740" fill="white"/>
<text x="24" y="28" font-family="sans-serif" font-size="19">clean | epsilon=0.05 m | seed=42</text>
<text x="24" y="52" font-family="sans-serif" font-size="13">Learning graph only; no correspondence selection / no CLIPPER</text>
<line x1="380.00" y1="80.00" x2="229.97" y2="122.69" stroke="#cbd5e1" stroke-opacity="0.55"/>
<line x1="432.37" y1="84.85" x2="607.43" y2="193.25" stroke="#16a34a" stroke-opacity="0.55"/>
<line x1="432.37" y1="84.85" x2="663.78" y2="338.70" stroke="#16a34a" stroke-opacity="0.55"/>
<line x1="432.37" y1="84.85" x2="607.43" y2="536.75" stroke="#16a34a" stroke-opacity="0.55"/>
<line x1="432.37" y1="84.85" x2="530.03" y2="607.31" stroke="#16a34a" stroke-opacity="0.55"/>
<line x1="432.37" y1="84.85" x2="277.05" y2="630.75" stroke="#16a34a" stroke-opacity="0.55"/>
<line x1="432.37" y1="84.85" x2="124.88" y2="492.04" stroke="#16a34a" stroke-opacity="0.55"/>
<line x1="432.37" y1="84.85" x2="96.22" y2="338.70" stroke="#16a34a" stroke-opacity="0.55"/>
<line x1="432.37" y1="84.85" x2="105.88" y2="287.01" stroke="#16a34a" stroke-opacity="0.55"/>
<line x1="432.37" y1="84.85" x2="188.00" y2="154.38" stroke="#16a34a" stroke-opacity="0.55"/>
<line x1="482.95" y1="99.25" x2="635.12" y2="492.04" stroke="#cbd5e1" stroke-opacity="0.55"/>
<line x1="482.95" y1="99.25" x2="96.22" y2="338.70" stroke="#cbd5e1" stroke-opacity="0.55"/>
<line x1="530.03" y1="122.69" x2="188.00" y2="575.62" stroke="#cbd5e1" stroke-opacity="0.55"/>
<line x1="572.00" y1="154.38" x2="482.95" y2="630.75" stroke="#cbd5e1" stroke-opacity="0.55"/>
<line x1="607.43" y1="193.25" x2="663.78" y2="338.70" stroke="#16a34a" stroke-opacity="0.55"/>
<line x1="607.43" y1="193.25" x2="607.43" y2="536.75" stroke="#16a34a" stroke-opacity="0.55"/>
<line x1="607.43" y1="193.25" x2="530.03" y2="607.31" stroke="#16a34a" stroke-opacity="0.55"/>
<line x1="607.43" y1="193.25" x2="277.05" y2="630.75" stroke="#16a34a" stroke-opacity="0.55"/>
<line x1="607.43" y1="193.25" x2="124.88" y2="492.04" stroke="#16a34a" stroke-opacity="0.55"/>
<line x1="607.43" y1="193.25" x2="96.22" y2="338.70" stroke="#16a34a" stroke-opacity="0.55"/>
<line x1="607.43" y1="193.25" x2="105.88" y2="287.01" stroke="#16a34a" stroke-opacity="0.55"/>
<line x1="607.43" y1="193.25" x2="188.00" y2="154.38" stroke="#16a34a" stroke-opacity="0.55"/>
<line x1="635.12" y1="237.96" x2="96.22" y2="391.30" stroke="#cbd5e1" stroke-opacity="0.55"/>
<line x1="654.12" y1="287.01" x2="124.88" y2="237.96" stroke="#cbd5e1" stroke-opacity="0.55"/>
<line x1="663.78" y1="338.70" x2="607.43" y2="536.75" stroke="#16a34a" stroke-opacity="0.55"/>
<line x1="663.78" y1="338.70" x2="530.03" y2="607.31" stroke="#16a34a" stroke-opacity="0.55"/>
<line x1="663.78" y1="338.70" x2="277.05" y2="630.75" stroke="#16a34a" stroke-opacity="0.55"/>
<line x1="663.78" y1="338.70" x2="124.88" y2="492.04" stroke="#16a34a" stroke-opacity="0.55"/>
<line x1="663.78" y1="338.70" x2="96.22" y2="338.70" stroke="#16a34a" stroke-opacity="0.55"/>
<line x1="663.78" y1="338.70" x2="105.88" y2="287.01" stroke="#16a34a" stroke-opacity="0.55"/>
<line x1="663.78" y1="338.70" x2="188.00" y2="154.38" stroke="#16a34a" stroke-opacity="0.55"/>
<line x1="663.78" y1="391.30" x2="327.63" y2="645.15" stroke="#cbd5e1" stroke-opacity="0.55"/>
<line x1="654.12" y1="442.99" x2="277.05" y2="99.25" stroke="#cbd5e1" stroke-opacity="0.55"/>
<line x1="635.12" y1="492.04" x2="96.22" y2="338.70" stroke="#cbd5e1" stroke-opacity="0.55"/>
<line x1="607.43" y1="536.75" x2="530.03" y2="607.31" stroke="#16a34a" stroke-opacity="0.55"/>
<line x1="607.43" y1="536.75" x2="277.05" y2="630.75" stroke="#16a34a" stroke-opacity="0.55"/>
<line x1="607.43" y1="536.75" x2="124.88" y2="492.04" stroke="#16a34a" stroke-opacity="0.55"/>
<line x1="607.43" y1="536.75" x2="96.22" y2="338.70" stroke="#16a34a" stroke-opacity="0.55"/>
<line x1="607.43" y1="536.75" x2="105.88" y2="287.01" stroke="#16a34a" stroke-opacity="0.55"/>
<line x1="607.43" y1="536.75" x2="188.00" y2="154.38" stroke="#16a34a" stroke-opacity="0.55"/>
<line x1="572.00" y1="575.62" x2="152.57" y2="536.75" stroke="#cbd5e1" stroke-opacity="0.55"/>
<line x1="530.03" y1="607.31" x2="277.05" y2="630.75" stroke="#16a34a" stroke-opacity="0.55"/>
<line x1="530.03" y1="607.31" x2="124.88" y2="492.04" stroke="#16a34a" stroke-opacity="0.55"/>
<line x1="530.03" y1="607.31" x2="96.22" y2="338.70" stroke="#16a34a" stroke-opacity="0.55"/>
<line x1="530.03" y1="607.31" x2="105.88" y2="287.01" stroke="#16a34a" stroke-opacity="0.55"/>
<line x1="530.03" y1="607.31" x2="188.00" y2="154.38" stroke="#16a34a" stroke-opacity="0.55"/>
<line x1="432.37" y1="645.15" x2="105.88" y2="442.99" stroke="#cbd5e1" stroke-opacity="0.55"/>
<line x1="380.00" y1="650.00" x2="96.22" y2="338.70" stroke="#cbd5e1" stroke-opacity="0.55"/>
<line x1="380.00" y1="650.00" x2="152.57" y2="193.25" stroke="#cbd5e1" stroke-opacity="0.55"/>
<line x1="277.05" y1="630.75" x2="124.88" y2="492.04" stroke="#16a34a" stroke-opacity="0.55"/>
<line x1="277.05" y1="630.75" x2="96.22" y2="338.70" stroke="#16a34a" stroke-opacity="0.55"/>
<line x1="277.05" y1="630.75" x2="105.88" y2="287.01" stroke="#16a34a" stroke-opacity="0.55"/>
<line x1="277.05" y1="630.75" x2="188.00" y2="154.38" stroke="#16a34a" stroke-opacity="0.55"/>
<line x1="229.97" y1="607.31" x2="327.63" y2="84.85" stroke="#cbd5e1" stroke-opacity="0.55"/>
<line x1="124.88" y1="492.04" x2="96.22" y2="338.70" stroke="#16a34a" stroke-opacity="0.55"/>
<line x1="124.88" y1="492.04" x2="105.88" y2="287.01" stroke="#16a34a" stroke-opacity="0.55"/>
<line x1="124.88" y1="492.04" x2="188.00" y2="154.38" stroke="#16a34a" stroke-opacity="0.55"/>
<line x1="96.22" y1="338.70" x2="105.88" y2="287.01" stroke="#16a34a" stroke-opacity="0.55"/>
<line x1="96.22" y1="338.70" x2="152.57" y2="193.25" stroke="#cbd5e1" stroke-opacity="0.55"/>
<line x1="96.22" y1="338.70" x2="188.00" y2="154.38" stroke="#16a34a" stroke-opacity="0.55"/>
<line x1="105.88" y1="287.01" x2="188.00" y2="154.38" stroke="#16a34a" stroke-opacity="0.55"/>
<circle cx="380.00" cy="80.00" r="9" fill="#64748b"><title>node 0: A0 - B0</title></circle>
<text x="380.00" y="67.00" text-anchor="middle" font-family="sans-serif" font-size="10">0</text>
<circle cx="432.37" cy="84.85" r="9" fill="#15803d"><title>node 1: A0 - B1</title></circle>
<text x="435.49" y="72.14" text-anchor="middle" font-family="sans-serif" font-size="10">1</text>
<circle cx="482.95" cy="99.25" r="9" fill="#64748b"><title>node 2: A0 - B7</title></circle>
<text x="489.09" y="87.39" text-anchor="middle" font-family="sans-serif" font-size="10">2</text>
<circle cx="530.03" cy="122.69" r="9" fill="#64748b"><title>node 3: A0 - B8</title></circle>
<text x="538.98" y="112.23" text-anchor="middle" font-family="sans-serif" font-size="10">3</text>
<circle cx="572.00" cy="154.38" r="9" fill="#64748b"><title>node 4: A1 - B2</title></circle>
<text x="583.46" y="145.82" text-anchor="middle" font-family="sans-serif" font-size="10">4</text>
<circle cx="607.43" cy="193.25" r="9" fill="#15803d"><title>node 5: A1 - B3</title></circle>
<text x="621.00" y="187.00" text-anchor="middle" font-family="sans-serif" font-size="10">5</text>
<circle cx="635.12" cy="237.96" r="9" fill="#64748b"><title>node 6: A1 - B5</title></circle>
<text x="650.34" y="234.39" text-anchor="middle" font-family="sans-serif" font-size="10">6</text>
<circle cx="654.12" cy="287.01" r="9" fill="#64748b"><title>node 7: A2 - B4</title></circle>
<text x="670.47" y="286.35" text-anchor="middle" font-family="sans-serif" font-size="10">7</text>
<circle cx="663.78" cy="338.70" r="9" fill="#15803d"><title>node 8: A2 - B6</title></circle>
<text x="680.71" y="341.13" text-anchor="middle" font-family="sans-serif" font-size="10">8</text>
<circle cx="663.78" cy="391.30" r="9" fill="#64748b"><title>node 9: A2 - B9</title></circle>
<text x="680.71" y="396.87" text-anchor="middle" font-family="sans-serif" font-size="10">9</text>
<circle cx="654.12" cy="442.99" r="9" fill="#64748b"><title>node 10: A3 - B0</title></circle>
<text x="670.47" y="451.65" text-anchor="middle" font-family="sans-serif" font-size="10">10</text>
<circle cx="635.12" cy="492.04" r="9" fill="#64748b"><title>node 11: A3 - B1</title></circle>
<text x="650.34" y="503.61" text-anchor="middle" font-family="sans-serif" font-size="10">11</text>
<circle cx="607.43" cy="536.75" r="9" fill="#15803d"><title>node 12: A3 - B7</title></circle>
<text x="621.00" y="551.00" text-anchor="middle" font-family="sans-serif" font-size="10">12</text>
<circle cx="572.00" cy="575.62" r="9" fill="#64748b"><title>node 13: A3 - B8</title></circle>
<text x="583.46" y="592.18" text-anchor="middle" font-family="sans-serif" font-size="10">13</text>
<circle cx="530.03" cy="607.31" r="9" fill="#15803d"><title>node 14: A4 - B2</title></circle>
<text x="538.98" y="625.77" text-anchor="middle" font-family="sans-serif" font-size="10">14</text>
<circle cx="482.95" cy="630.75" r="9" fill="#64748b"><title>node 15: A4 - B3</title></circle>
<text x="489.09" y="650.61" text-anchor="middle" font-family="sans-serif" font-size="10">15</text>
<circle cx="432.37" cy="645.15" r="9" fill="#64748b"><title>node 16: A4 - B5</title></circle>
<text x="435.49" y="665.86" text-anchor="middle" font-family="sans-serif" font-size="10">16</text>
<circle cx="380.00" cy="650.00" r="9" fill="#64748b"><title>node 17: A5 - B4</title></circle>
<text x="380.00" y="671.00" text-anchor="middle" font-family="sans-serif" font-size="10">17</text>
<circle cx="327.63" cy="645.15" r="9" fill="#64748b"><title>node 18: A5 - B6</title></circle>
<text x="324.51" y="665.86" text-anchor="middle" font-family="sans-serif" font-size="10">18</text>
<circle cx="277.05" cy="630.75" r="9" fill="#15803d"><title>node 19: A5 - B9</title></circle>
<text x="270.91" y="650.61" text-anchor="middle" font-family="sans-serif" font-size="10">19</text>
<circle cx="229.97" cy="607.31" r="9" fill="#64748b"><title>node 20: A6 - B0</title></circle>
<text x="221.02" y="625.77" text-anchor="middle" font-family="sans-serif" font-size="10">20</text>
<circle cx="188.00" cy="575.62" r="9" fill="#64748b"><title>node 21: A6 - B1</title></circle>
<text x="176.54" y="592.18" text-anchor="middle" font-family="sans-serif" font-size="10">21</text>
<circle cx="152.57" cy="536.75" r="9" fill="#64748b"><title>node 22: A6 - B7</title></circle>
<text x="139.00" y="551.00" text-anchor="middle" font-family="sans-serif" font-size="10">22</text>
<circle cx="124.88" cy="492.04" r="9" fill="#15803d"><title>node 23: A6 - B8</title></circle>
<text x="109.66" y="503.61" text-anchor="middle" font-family="sans-serif" font-size="10">23</text>
<circle cx="105.88" cy="442.99" r="9" fill="#64748b"><title>node 24: A7 - B2</title></circle>
<text x="89.53" y="451.65" text-anchor="middle" font-family="sans-serif" font-size="10">24</text>
<circle cx="96.22" cy="391.30" r="9" fill="#64748b"><title>node 25: A7 - B3</title></circle>
<text x="79.29" y="396.87" text-anchor="middle" font-family="sans-serif" font-size="10">25</text>
<circle cx="96.22" cy="338.70" r="9" fill="#15803d"><title>node 26: A7 - B5</title></circle>
<text x="79.29" y="341.13" text-anchor="middle" font-family="sans-serif" font-size="10">26</text>
<circle cx="105.88" cy="287.01" r="9" fill="#15803d"><title>node 27: A8 - B4</title></circle>
<text x="89.53" y="286.35" text-anchor="middle" font-family="sans-serif" font-size="10">27</text>
<circle cx="124.88" cy="237.96" r="9" fill="#64748b"><title>node 28: A8 - B6</title></circle>
<text x="109.66" y="234.39" text-anchor="middle" font-family="sans-serif" font-size="10">28</text>
<circle cx="152.57" cy="193.25" r="9" fill="#64748b"><title>node 29: A8 - B9</title></circle>
<text x="139.00" y="187.00" text-anchor="middle" font-family="sans-serif" font-size="10">29</text>
<circle cx="188.00" cy="154.38" r="9" fill="#15803d"><title>node 30: A9 - B0</title></circle>
<text x="176.54" y="145.82" text-anchor="middle" font-family="sans-serif" font-size="10">30</text>
<circle cx="229.97" cy="122.69" r="9" fill="#64748b"><title>node 31: A9 - B1</title></circle>
<text x="221.02" y="112.23" text-anchor="middle" font-family="sans-serif" font-size="10">31</text>
<circle cx="277.05" cy="99.25" r="9" fill="#64748b"><title>node 32: A9 - B7</title></circle>
<text x="270.91" y="87.39" text-anchor="middle" font-family="sans-serif" font-size="10">32</text>
<circle cx="327.63" cy="84.85" r="9" fill="#64748b"><title>node 33: A9 - B8</title></circle>
<text x="324.51" y="72.14" text-anchor="middle" font-family="sans-serif" font-size="10">33</text>
<text x="24" y="706" font-family="sans-serif" font-size="13">Green: correct hypothesis | Gray: incorrect | IDs: candidate indices in graph.json</text></svg>